<?xml version="1.0" encoding="UTF-8"?>
<svg width="144px" height="129px" viewBox="0 0 144 129" version="1.1" xmlns="http://www.w3.org/2000/svg" xmlns:xlink="http://www.w3.org/1999/xlink">
    <title>404</title>
    <defs>
        <polygon id="path-1" points="0 2.001 143.9988 2.001 143.9988 126 0 126"></polygon>
    </defs>
    <g id="页面-1" stroke="none" stroke-width="1" fill="none" fill-rule="evenodd">
        <g id="空白页" transform="translate(-1380.000000, -251.000000)">
            <g id="404" transform="translate(1380.000000, 251.000000)">
                <g id="编组" transform="translate(0.000000, 0.999900)">
                    <mask id="mask-2" fill="white">
                        <use xlink:href="#path-1"></use>
                    </mask>
                    <g id="Clip-2"></g>
                    <path d="M8.6148,55.539 C8.6148,57.18 6.1548,57.18 6.1548,55.539 L6.1548,50.922 C6.1548,50.244 6.7038,49.692 7.3848,49.692 L11.9988,49.692 C13.6398,49.692 13.6398,52.155 11.9988,52.155 L8.6148,52.155 L8.6148,55.539 Z M120.1548,7.386 L124.3068,7.386 C125.9478,7.386 125.9478,9.846 124.3068,9.846 L120.1548,9.846 L120.1548,14.001 C120.1548,15.642 117.6918,15.642 117.6918,14.001 L117.6918,9.846 L113.5398,9.846 C111.8988,9.846 111.8988,7.386 113.5398,7.386 L117.6918,7.386 L117.6918,3.231 C117.6918,1.59 120.1548,1.59 120.1548,3.231 L120.1548,7.386 Z M6.1548,46.308 C6.1548,44.667 8.6148,44.667 8.6148,46.308 L8.6148,50.922 C8.6148,51.603 8.0628,52.155 7.3848,52.155 L2.7678,52.155 C1.1268,52.155 1.1268,49.692 2.7678,49.692 L6.1548,49.692 L6.1548,46.308 Z M125.5398,92.463 C125.5398,94.101 123.0768,94.101 123.0768,92.463 L123.0768,87.846 C123.0768,87.165 123.6288,86.616 124.3068,86.616 L128.9238,86.616 C130.5648,86.616 130.5648,89.076 128.9238,89.076 L125.5398,89.076 L125.5398,92.463 Z M123.0768,83.229 C123.0768,81.591 125.5398,81.591 125.5398,83.229 L125.5398,87.846 C125.5398,88.527 124.9878,89.076 124.3068,89.076 L119.6928,89.076 C118.0518,89.076 118.0518,86.616 119.6928,86.616 L123.0768,86.616 L123.0768,83.229 Z M54.3078,126 C53.6268,126 53.0778,125.448 53.0778,124.77 C53.0778,124.089 53.6268,123.54 54.3078,123.54 L101.2308,123.54 C101.9118,123.54 102.4608,124.089 102.4608,124.77 C102.4608,125.448 101.9118,126 101.2308,126 L54.3078,126 Z M36.6138,126 C35.9358,126 35.3838,125.448 35.3838,124.77 C35.3838,124.089 35.9358,123.54 36.6138,123.54 L47.3838,123.54 C48.0648,123.54 48.6138,124.089 48.6138,124.77 C48.6138,125.448 48.0648,126 47.3838,126 L36.6138,126 Z M128.9238,114.462 C128.2428,114.462 127.6908,113.91 127.6908,113.229 C127.6908,112.551 128.2428,111.999 128.9238,111.999 L142.7688,111.999 C143.4498,111.999 143.9988,112.551 143.9988,113.229 C143.9988,113.91 143.4498,114.462 142.7688,114.462 L128.9238,114.462 Z M115.0758,114.462 C114.3978,114.462 113.8458,113.91 113.8458,113.229 C113.8458,112.551 114.3978,111.999 115.0758,111.999 L118.9248,111.999 C119.6028,111.999 120.1548,112.551 120.1548,113.229 C120.1548,113.91 119.6028,114.462 118.9248,114.462 L115.0758,114.462 Z M1.2318,114.462 C0.5508,114.462 -0.0012,113.91 -0.0012,113.229 C-0.0012,112.551 0.5508,111.999 1.2318,111.999 L108.9228,111.999 C109.6038,111.999 110.1528,112.551 110.1528,113.229 C110.1528,113.91 109.6038,114.462 108.9228,114.462 L1.2318,114.462 Z" id="Fill-1" fill="#C3CBD6" mask="url(#mask-2)"></path>
                </g>
                <path d="M33.0879,20.889 C32.3619,21.615 31.2759,20.526 31.9989,19.803 L33.6309,18.171 C33.9309,17.871 34.4199,17.871 34.7199,18.171 L36.3519,19.803 C37.0779,20.526 35.9889,21.615 35.2629,20.889 L34.1769,19.803 L33.0879,20.889 Z M35.2629,16.539 C35.9889,15.813 37.0779,16.899 36.3519,17.628 L34.7199,19.26 C34.4199,19.56 33.9309,19.56 33.6309,19.26 L31.9989,17.628 C31.2759,16.899 32.3619,15.813 33.0879,16.539 L34.1769,17.628 L35.2629,16.539 Z M19.5069,101.418 C18.7809,102.141 17.6919,101.055 18.4179,100.329 L20.0499,98.7 C20.3499,98.397 20.8389,98.397 21.1389,98.7 L22.7709,100.329 C23.4939,101.055 22.4049,102.141 21.6819,101.418 L20.5929,100.329 L19.5069,101.418 Z M21.6819,97.068 C22.4049,96.342 23.4939,97.428 22.7709,98.154 L21.1389,99.786 C20.8389,100.086 20.3499,100.086 20.0499,99.786 L18.4179,98.154 C17.6919,97.428 18.7809,96.342 19.5069,97.068 L20.5929,98.154 L21.6819,97.068 Z" id="Fill-3" fill="#C3CBD6"></path>
                <path d="M94.3785,55.0125 L102.5055,58.2945 L100.7745,62.5755 C100.1385,64.1505 98.3475,64.9125 96.7695,64.2735 L69.6675,53.3265 C68.0925,52.6875 67.3305,50.8935 67.9665,49.3215 L69.6975,45.0405 L76.3965,47.7465 C70.3545,44.3685 68.3205,40.2285 70.3035,35.3295 C74.4405,25.0875 86.0955,20.1375 96.3375,24.2775 C106.5795,28.4145 111.5265,40.0725 107.3895,50.3145 C105.4095,55.2135 101.0715,56.7795 94.3785,55.0125 L85.3875,51.3795 C81.7695,50.2875 78.7725,49.0755 76.3965,47.7465 L94.3785,55.0125 Z" id="Fill-5" fill="#F5F7F9"></path>
                <path d="M94.8399,53.8716 C100.7409,55.4226 104.5239,54.1236 106.2489,49.8516 C110.1249,40.2576 105.4719,29.2956 95.8779,25.4196 C91.2279,23.5386 86.1249,23.5836 81.5139,25.5456 C76.8969,27.5016 73.3209,31.1406 71.4429,35.7906 C69.7239,40.0416 71.5209,43.5906 76.9299,46.6356 L94.8399,53.8716 Z M70.3779,46.6416 L69.1089,49.7826 C68.7279,50.7246 69.1869,51.8016 70.1289,52.1856 L97.2309,63.1326 C97.6869,63.3156 98.1879,63.3126 98.6439,63.1206 C99.0969,62.9286 99.4509,62.5716 99.6339,62.1156 L100.9029,58.9746 L84.9249,52.5216 C81.3819,51.4536 78.2979,50.2116 75.8649,48.8586 L70.3779,46.6416 Z M97.9239,65.7336 C97.3779,65.7336 96.8319,65.6256 96.3099,65.4156 L69.2079,54.4656 C67.0059,53.5746 65.9379,51.0606 66.8259,48.8586 L69.0189,43.4376 L69.9249,43.8066 C67.7619,40.5816 68.1519,37.3626 69.1599,34.8696 C71.2839,29.6106 75.3309,25.4946 80.5509,23.2776 C85.7709,21.0606 91.5429,21.0126 96.7989,23.1366 C107.6529,27.5226 112.9149,39.9216 108.5289,50.7756 C107.5239,53.2656 105.5649,55.8546 101.7729,56.6736 L104.1069,57.6156 L101.9169,63.0366 C101.4849,64.1046 100.6659,64.9386 99.6069,65.3886 C99.0669,65.6166 98.4939,65.7336 97.9239,65.7336 L97.9239,65.7336 Z" id="Fill-7" fill="#C3CBD6"></path>
                <polygon id="Fill-9" fill="#FFFFFF" points="60.4203 34.323 115.1943 56.454 111.5073 65.583 56.7333 43.452"></polygon>
                <path d="M58.3344,42.7722 L110.8284,63.9792 L113.5914,57.1332 L61.1004,35.9262 L58.3344,42.7722 Z M112.1874,67.1862 L55.1304,44.1312 L59.7414,32.7192 L116.7984,55.7742 L112.1874,67.1862 Z" id="Fill-11" fill="#C3CAD7"></path>
                <path d="M101.5035,58.7202 C100.3215,58.2432 99.7515,56.8992 100.2285,55.7172 C100.7055,54.5352 102.0525,53.9652 103.2315,54.4422 C104.4135,54.9192 104.9865,56.2632 104.5065,57.4452 C104.0295,58.6272 102.6855,59.1972 101.5035,58.7202 M91.5195,54.6852 C90.3375,54.2082 89.7645,52.8642 90.2445,51.6822 C90.7215,50.5002 92.0655,49.9302 93.2475,50.4072 C94.4295,50.8842 94.9995,52.2282 94.5225,53.4102 C94.0455,54.5922 92.6985,55.1622 91.5195,54.6852 M78.6825,49.4982 C77.5005,49.0212 76.9275,47.6772 77.4045,46.4952 C77.8815,45.3132 79.2285,44.7432 80.4105,45.2202 C81.5925,45.6972 82.1625,47.0412 81.6855,48.2232 C81.2055,49.4082 79.8615,49.9752 78.6825,49.4982 M68.6955,45.4662 C67.5135,44.9862 66.9435,43.6422 67.4205,42.4632 C67.8975,41.2812 69.2445,40.7082 70.4235,41.1852 C71.6055,41.6622 72.1785,43.0092 71.6985,44.1912 C71.2215,45.3732 69.8775,45.9432 68.6955,45.4662" id="Fill-13" fill="#C3CAD7"></path>
                <path d="M39.0807,75.5643 C39.4137,75.3033 39.8967,75.3633 40.1607,75.6963 C40.4217,76.0323 40.3617,76.5153 40.0257,76.7763 L31.1397,83.7213 C30.8037,83.9823 30.3207,83.9223 30.0597,83.5863 C29.7987,83.2533 29.8587,82.7703 30.1917,82.5063 L39.0807,75.5643 Z M45.2997,70.7043 C45.6357,70.4433 46.1187,70.5033 46.3797,70.8363 C46.6437,71.1723 46.5807,71.6553 46.2477,71.9163 L43.3107,74.2113 C42.9747,74.4723 42.4917,74.4123 42.2307,74.0793 C41.9697,73.7433 42.0267,73.2603 42.3627,72.9993 L45.2997,70.7043 Z M65.1237,55.2153 C65.4567,54.9543 65.9427,55.0143 66.2037,55.3503 C66.4647,55.6833 66.4047,56.1663 66.0717,56.4303 L50.3277,68.7303 C49.9917,68.9913 49.5087,68.9313 49.2477,68.5983 C48.9837,68.2623 49.0437,67.7793 49.3797,67.5183 L65.1237,55.2153 Z" id="Fill-15" fill="#C3CAD7"></path>
                <path d="M98.5869,68.7366 C98.5269,68.3166 98.1399,68.0226 97.7169,68.0826 C97.2969,68.1396 97.0059,68.5296 97.0629,68.9496 L101.3829,91.8126 C101.4429,92.2356 101.8299,92.5266 102.2529,92.4696 C102.6729,92.4096 102.9639,92.0196 102.9039,91.5996 L98.5869,68.7366 Z" id="Fill-17" fill="#C3CAD7"></path>
                <path d="M59.6616,53.6943 C60.0606,53.5503 60.5016,53.7573 60.6486,54.1533 C60.7926,54.5553 60.5856,54.9963 60.1866,55.1403 L51.6846,58.8183 C51.2856,58.9653 50.8446,58.7583 50.7006,58.3593 C50.5536,57.9603 50.7606,57.5193 51.1596,57.3753 L59.6616,53.6943 Z" id="Fill-19" fill="#C3CAD7"></path>
                <path d="M102.3399,73.7949 C102.1809,73.4019 102.3699,72.9519 102.7659,72.7959 C103.1589,72.6339 103.6059,72.8259 103.7679,73.2189 L107.9919,83.6769 C108.1509,84.0699 107.9619,84.5199 107.5659,84.6759 C107.1729,84.8379 106.7229,84.6459 106.5639,84.2529 L102.3399,73.7949 Z" id="Fill-21" fill="#C3CAD7"></path>
                <path d="M56.3394,86.1054 L54.3084,81.3234 L52.2744,87.8304 L56.3394,86.1054 Z M57.7314,89.3814 L50.0334,92.6484 L48.5604,89.1744 L52.3734,76.7604 L56.0544,75.1974 L60.0234,84.5424 L61.9284,83.7324 L63.3204,87.0084 L61.4124,87.8184 L62.6184,90.6624 L58.9374,92.2254 L57.7314,89.3814 Z" id="Fill-23" fill="#C3CBD6"></path>
                <path d="M73.5264,79.4022 C74.0364,81.4422 74.5644,82.7922 75.1104,83.4492 C75.6564,84.1062 76.2744,84.3492 76.9614,84.1782 C77.4114,84.0672 77.7624,83.8092 78.0174,83.4102 C78.2694,83.0112 78.3894,82.4502 78.3744,81.7242 C78.3594,81.0012 78.1704,79.9122 77.8104,78.4632 C77.2794,76.3332 76.7424,74.9502 76.1994,74.3052 C75.6534,73.6632 75.0234,73.4322 74.3004,73.6122 C73.5654,73.7952 73.1274,74.3022 72.9834,75.1302 C72.8424,75.9612 73.0254,77.3832 73.5264,79.4022 M69.1074,80.4942 C68.3484,77.4462 68.3634,75.1782 69.1584,73.6872 C69.9534,72.1962 71.4714,71.1702 73.7154,70.6092 C74.7954,70.3422 75.7134,70.2552 76.4724,70.3482 C77.2314,70.4412 77.8824,70.6482 78.4254,70.9632 C78.9684,71.2812 79.4244,71.6442 79.7934,72.0522 C80.1624,72.4602 80.5014,72.9582 80.8104,73.5462 C81.4074,74.6652 81.8694,75.8742 82.1934,77.1732 C82.9164,80.0802 82.9554,82.3332 82.3074,83.9262 C81.6594,85.5192 80.1324,86.6172 77.7264,87.2142 C76.3794,87.5532 75.2364,87.6072 74.2974,87.3852 C73.3584,87.1632 72.5214,86.7042 71.7804,86.0052 C71.2494,85.5102 70.7454,84.7782 70.2774,83.8062 C69.8064,82.8372 69.4164,81.7302 69.1074,80.4942" id="Fill-25" fill="#C3CBD6"></path>
                <path d="M83.3409,101.4597 L86.2449,97.1517 L79.6779,98.9877 L83.3409,101.4597 Z M81.3489,104.4117 L74.4189,99.7347 L76.5279,96.6057 L89.0199,93.0417 L92.3349,95.2797 L86.6559,103.6977 L88.3749,104.8557 L86.3859,107.8077 L84.6669,106.6467 L82.9389,109.2087 L79.6239,106.9707 L81.3489,104.4117 Z" id="Fill-27" fill="#C3CBD6"></path>
            </g>
        </g>
    </g>
</svg>