<?xml version="1.0" standalone="no"?><!DOCTYPE svg PUBLIC "-//W3C//DTD SVG 1.1//EN" "http://www.w3.org/Graphics/SVG/1.1/DTD/svg11.dtd"><svg t="1627357658747" class="icon" viewBox="0 0 1024 1024" version="1.1" xmlns="http://www.w3.org/2000/svg" p-id="6080" width="32" height="32" xmlns:xlink="http://www.w3.org/1999/xlink"><defs><style type="text/css">@font-face { font-family: feedback-iconfont; src: url("//at.alicdn.com/t/font_1031158_1uhr8ri0pk5.eot?#iefix") format("embedded-opentype"), url("//at.alicdn.com/t/font_1031158_1uhr8ri0pk5.woff2") format("woff2"), url("//at.alicdn.com/t/font_1031158_1uhr8ri0pk5.woff") format("woff"), url("//at.alicdn.com/t/font_1031158_1uhr8ri0pk5.ttf") format("truetype"), url("//at.alicdn.com/t/font_1031158_1uhr8ri0pk5.svg#iconfont") format("svg"); }
</style></defs><path d="M485.655273 815.476364c-76.101818 36.538182-163.421091 59.345455-258.001455 36.864-94.580364-22.528-161.698909-83.456-150.155636-196.049455 11.543273-112.546909 130.885818-151.365818 229.096727-151.365818s284.485818 64.139636 284.485818 64.139636 15.639273-35.374545 30.859637-75.776c15.220364-40.401455 19.549091-72.890182 19.549091-72.890182H244.689455V380.276364H437.527273V303.616l-240.267637 1.768727V254.836364h240.267637v-114.967273h126.184727v114.967273h257.582545v50.548363l-257.582545 1.722182v71.447273l212.712727 1.768727s-3.863273 40.029091-30.813091 112.965818c-26.949818 72.890182-52.224 110.08-52.224 110.08l322.56 106.682182V204.8c0-113.105455-90.996364-204.8-203.217454-204.8H203.170909C90.996364 0 0 91.694545 0 204.8v614.4C0 932.305455 90.949818 1024 203.170909 1024H812.683636c93.556364 0 172.078545-63.767273 195.723637-150.481455l-372.130909-177.803636s-74.565818 83.130182-150.621091 119.714909z" fill="#108EE9" p-id="6081"></path><path d="M265.309091 566.690909c-118.458182 7.633455-147.409455 60.136727-147.409455 108.450909 0 48.360727 29.277091 115.525818 168.448 115.525818s257.256727-141.451636 257.256728-141.451636-159.930182-90.112-278.341819-82.525091z" fill="#108EE9" p-id="6082"></path></svg>