<?xml version="1.0" standalone="no"?><!DOCTYPE svg PUBLIC "-//W3C//DTD SVG 1.1//EN" "http://www.w3.org/Graphics/SVG/1.1/DTD/svg11.dtd"><svg t="1627357797838" class="icon" viewBox="0 0 1024 1024" version="1.1" xmlns="http://www.w3.org/2000/svg" p-id="7011" width="32" height="32" xmlns:xlink="http://www.w3.org/1999/xlink"><defs><style type="text/css">@font-face { font-family: feedback-iconfont; src: url("//at.alicdn.com/t/font_1031158_1uhr8ri0pk5.eot?#iefix") format("embedded-opentype"), url("//at.alicdn.com/t/font_1031158_1uhr8ri0pk5.woff2") format("woff2"), url("//at.alicdn.com/t/font_1031158_1uhr8ri0pk5.woff") format("woff"), url("//at.alicdn.com/t/font_1031158_1uhr8ri0pk5.ttf") format("truetype"), url("//at.alicdn.com/t/font_1031158_1uhr8ri0pk5.svg#iconfont") format("svg"); }
</style></defs><path d="M383.436123 618.008811c-4.511013 0-9.022026 4.511013-13.533039 4.511013-13.53304 0-22.555066-4.511013-27.06608-18.044053v-4.511013l-85.709251-180.440529v-4.511013c0-9.022026 4.511013-13.53304 13.53304-13.53304 4.511013 0 4.511013 0 9.022026 4.511013l99.242291 67.665199c9.022026 4.511013 18.044053 9.022026 27.066079 9.022026 4.511013 0 9.022026 0 18.044053-4.511013L888.669604 270.660793c-85.709251-99.242291-221.039648-162.396476-378.925111-162.396476C252.61674 108.264317 45.110132 279.682819 45.110132 487.189427c0 112.77533 63.154185 216.528634 157.885463 288.704846 9.022026 4.511013 13.53304 13.53304 13.533039 22.555066v9.022027c-9.022026 27.066079-22.555066 76.687225-22.555066 76.687224v13.53304c0 9.022026 4.511013 13.53304 13.53304 13.53304 4.511013 0 4.511013 0 9.022026-4.511014L315.770925 848.070485c9.022026-4.511013 18.044053-9.022026 22.555066-9.022027h13.53304c45.110132 13.53304 99.242291 22.555066 153.374449 22.555066 257.127753 0 464.634361-171.418502 464.634361-378.92511 0-63.154185-18.044053-121.797357-54.132158-175.929515L383.436123 618.008811z" fill="#09BB07" p-id="7012"></path></svg>